####
#
# OBJ File Generated by Meshlab
#
####
# Object b.obj
#
# Vertices: 176
# Faces: 356
#
####
vn 0.095633 -3.119860 3.139951
v -15.270170 17.000000 81.979378
vn -0.648073 2.675122 2.987038
v -16.519190 23.000000 82.003838
vn -0.648073 -2.675122 2.987038
v -16.519190 17.000000 82.003838
vn 0.095633 3.119860 3.139952
v -15.270170 23.000000 81.979378
vn -0.799172 -3.280782 3.030380
v -8.084279 17.000000 81.228767
vn -0.236288 3.366566 3.112781
v -8.881735 23.000000 81.076843
vn -0.236288 -3.366566 3.112781
v -8.881735 17.000000 81.076843
vn -0.799172 3.280782 3.030380
v -8.084279 23.000000 81.228767
vn -1.675003 2.901524 2.631054
v -17.148340 23.000000 81.702339
vn -1.675003 -2.901524 2.631054
v -17.148340 17.000000 81.702339
vn -1.573773 -3.195840 2.717643
v -20.442051 17.000000 78.717056
vn -1.539232 3.112991 2.738311
v -21.062679 23.000000 78.379791
vn -1.539232 -3.112991 2.738311
v -21.062679 17.000000 78.379791
vn -1.573773 3.195840 2.717643
v -20.442051 23.000000 78.717056
vn 1.775924 -3.195691 2.590079
v -2.936769 17.000000 81.357651
vn 1.846410 3.141913 2.541733
v -3.010122 23.000000 81.410919
vn 1.846405 -3.141913 2.541726
v -3.010122 17.000000 81.410919
vn 1.775921 3.195691 2.590075
v -2.936769 23.000000 81.357651
vn -1.244106 3.374193 2.861627
v -22.364170 23.000000 77.623497
vn -1.244106 -3.374193 2.861627
v -22.364170 17.000000 77.623497
vn 1.231709 -3.264699 2.883599
v -13.971110 17.000000 81.603409
vn 1.141408 2.958075 2.912717
v -14.320900 23.000000 81.778999
vn 1.141409 -2.958075 2.912718
v -14.320900 17.000000 81.778999
vn 1.231710 3.264699 2.883600
v -13.971110 23.000000 81.603409
vn 1.826776 -3.043924 2.551271
v 2.258927 17.000000 78.547798
vn 1.512835 3.003914 2.744857
v 1.818716 23.000000 78.831558
vn 1.512834 -3.003914 2.744857
v 1.818716 17.000000 78.831558
vn 1.826775 3.043924 2.551270
v 2.258927 23.000000 78.547798
vn 1.389777 3.188599 2.816501
v 1.186534 23.000000 79.125237
vn 1.389777 -3.188599 2.816501
v 1.186534 17.000000 79.125237
vn -1.570797 1.570797 1.570796
v -32.500000 42.500000 6.000000
vn -1.570797 -1.570797 -1.570796
v -32.500000 -2.499998 0.000000
vn -1.570796 -1.570796 1.570796
v -32.500000 -2.499998 6.000000
vn -1.570796 1.570796 -1.570796
v -32.500000 42.500000 0.000000
vn -2.084678 -3.058264 2.346614
v -18.882721 17.000000 80.284103
vn -2.530199 2.751475 1.759807
v -19.970570 23.000000 79.233414
vn -2.530199 -2.751475 1.759807
v -19.970570 17.000000 79.233414
vn -2.084678 3.058264 2.346614
v -18.882721 23.000000 80.284103
vn -1.042774 3.051808 2.960126
v -23.840330 23.000000 77.176872
vn -1.042774 -3.051808 2.960126
v -23.840330 17.000000 77.176872
vn 0.501572 2.901186 3.078330
v -14.970440 23.000000 81.966988
vn 0.501572 -2.901186 3.078330
v -14.970440 17.000000 81.966988
vn 0.123988 -2.992035 3.130359
v -4.534196 17.000000 81.859299
vn -0.173030 3.101745 3.136200
v -5.256476 23.000000 81.833870
vn -0.173030 -3.101745 3.136199
v -5.256476 17.000000 81.833870
vn 0.123988 2.992035 3.130359
v -4.534196 23.000000 81.859299
vn 1.570796 1.570796 4.712389
v -13.375000 4.250001 76.500000
vn -2.403779 -1.916089 -3.169896
v -6.625000 4.250001 62.025002
vn 2.403780 -1.916089 -3.169896
v -13.375000 4.250001 62.025002
vn -1.570796 1.570796 4.712389
v -6.625000 4.250001 76.500000
vn 0.806140 3.403381 -3.008589
v -10.970570 23.000000 32.122219
vn 1.557352 -3.403409 -2.697423
v -11.875000 17.000000 31.747601
vn 1.557353 3.403405 -2.697424
v -11.875000 23.000000 31.747601
vn 0.806140 -3.403381 -3.008589
v -10.970570 17.000000 32.122219
vn -0.000000 3.403398 -3.114714
v -9.999998 23.000000 32.250000
vn -0.000000 -3.403398 -3.114715
v -9.999998 17.000000 32.250000
vn -2.202444 3.403388 -2.202430
v -7.348348 23.000000 31.151649
vn -1.557353 -3.403409 -2.697423
v -8.124998 17.000000 31.747601
vn -1.557353 3.403405 -2.697423
v -8.124998 23.000000 31.747601
vn -2.202444 -3.403388 -2.202431
v -7.348348 17.000000 31.151649
vn -2.697423 -3.403389 -1.557360
v -6.752405 17.000000 30.375000
vn -2.697423 3.403389 -1.557361
v -6.752405 23.000000 30.375000
vn -3.008583 -3.403396 -0.806150
v -6.377775 17.000000 29.470570
vn -3.008583 3.403396 -0.806150
v -6.377775 23.000000 29.470570
vn -3.114716 -3.403390 0.000000
v -6.249998 17.000000 28.500000
vn -3.114716 3.403390 -0.000000
v -6.249998 23.000000 28.500000
vn -3.008583 -3.403395 0.806150
v -6.377775 17.000000 27.529430
vn -3.008583 3.403395 0.806150
v -6.377775 23.000000 27.529430
vn -2.697423 -3.403389 1.557361
v -6.752405 17.000000 26.625000
vn -2.697423 3.403389 1.557360
v -6.752405 23.000000 26.625000
vn 0.806140 -3.403381 3.008589
v -10.970570 17.000000 24.877781
vn 1.557352 3.403405 2.697423
v -11.875000 23.000000 25.252399
vn 1.557353 -3.403405 2.697424
v -11.875000 17.000000 25.252399
vn 0.806140 3.403381 3.008589
v -10.970570 23.000000 24.877781
vn 2.202440 3.403383 2.202437
v -12.651650 23.000000 25.848351
vn 2.202439 -3.403383 2.202437
v -12.651650 17.000000 25.848351
vn 2.697423 -3.403403 1.557354
v -13.247600 17.000000 26.625000
vn 2.697423 3.403403 1.557354
v -13.247600 23.000000 26.625000
vn 3.008588 -3.403383 0.806142
v -13.622220 17.000000 27.529430
vn 3.008588 3.403383 0.806142
v -13.622220 23.000000 27.529430
vn 3.114715 3.403396 0.000000
v -13.750000 23.000000 28.500000
vn 3.008588 -3.403383 -0.806142
v -13.622220 17.000000 29.470570
vn 3.114715 -3.403396 -0.000000
v -13.750000 17.000000 28.500000
vn 3.008588 3.403383 -0.806142
v -13.622220 23.000000 29.470570
vn 2.697423 -3.403403 -1.557354
v -13.247600 17.000000 30.375000
vn 2.697423 3.403403 -1.557354
v -13.247600 23.000000 30.375000
vn -0.806141 3.403381 -3.008589
v -9.029428 23.000000 32.122219
vn -0.806141 -3.403381 -3.008589
v -9.029428 17.000000 32.122219
vn 2.202440 -3.403383 -2.202437
v -12.651650 17.000000 31.151649
vn 2.202439 3.403383 -2.202437
v -12.651650 23.000000 31.151649
vn -2.202444 -3.403388 2.202430
v -7.348348 17.000000 25.848351
vn -2.202444 3.403388 2.202431
v -7.348348 23.000000 25.848351
vn -1.557353 3.403405 2.697423
v -8.124998 23.000000 25.252399
vn -1.557353 -3.403405 2.697423
v -8.124998 17.000000 25.252399
vn -0.806141 3.403381 3.008589
v -9.029428 23.000000 24.877781
vn -0.806141 -3.403381 3.008589
v -9.029428 17.000000 24.877781
vn -0.000000 3.403398 3.114715
v -9.999998 23.000000 24.750000
vn -0.000000 -3.403398 3.114714
v -9.999998 17.000000 24.750000
vn -1.570796 -1.570796 1.570796
v -16.000000 2.000001 76.500000
vn -1.570796 -4.712389 1.570796
v -16.000000 17.000000 76.500000
vn 1.570797 -1.570796 1.570796
v -4.000000 2.000001 76.500000
vn -1.570796 -1.570796 4.712389
v -6.625000 10.250000 76.500000
vn 1.570796 -1.570796 4.712389
v -13.375000 10.250000 76.500000
vn 1.570796 -4.712389 1.570797
v -4.000000 17.000000 76.500000
vn 1.570797 1.570797 4.712389
v 5.000002 23.000000 6.000000
vn 3.141593 -3.141592 0.000000
v 5.000002 17.000000 9.000000
vn 1.570796 -1.570796 4.712389
v 5.000002 17.000000 6.000000
vn 2.709316 -2.381532 1.082209
v 5.000002 17.000000 76.500000
vn 2.709315 2.381530 1.082208
v 5.000002 23.000000 76.500000
vn 0.000000 3.141600 0.000000
v 5.000002 23.000000 9.000000
vn 0.737814 -5.057682 -3.169896
v -13.375000 10.250000 55.424999
vn -0.737814 -5.057682 -3.169896
v -6.625000 10.250000 55.424999
vn -2.403777 -2.733091 -1.056632
v -16.000000 2.000001 64.500000
vn -0.737815 -5.874682 -1.056632
v -16.000000 17.000000 48.000000
vn 0.737816 -5.874684 -1.056632
v -4.000000 17.000000 48.000000
vn 2.403777 -2.733091 -1.056632
v -4.000000 2.000001 64.500000
vn -2.497923 2.202096 1.268026
v -25.000000 23.000000 76.500000
vn -3.141593 -3.141608 0.000000
v -25.000000 17.000000 9.000000
vn -2.497894 -2.202101 1.268026
v -25.000000 17.000000 76.500000
vn -1.570797 -1.570797 4.712389
v -25.000000 17.000000 6.000000
vn -1.570796 1.570796 4.712389
v -25.000000 23.000000 6.000000
vn 0.000000 3.141592 0.000000
v -25.000000 23.000000 9.000000
vn -1.514979 2.893880 2.724665
v -24.362400 23.000000 76.966171
vn 1.975287 2.892634 2.411577
v 4.669983 23.000000 76.847191
vn 1.610846 3.095104 2.696192
v 4.203733 23.000000 77.140671
vn 1.751873 3.298210 2.596179
v 3.731474 23.000000 77.408127
vn 2.177878 3.339162 2.242869
v 3.109034 23.000000 77.903198
vn 1.944636 2.765935 2.396638
v 2.936779 23.000000 78.107162
vn 1.579073 3.207867 2.713910
v 2.692780 23.000000 78.238510
vn 1.810247 3.251724 2.561781
v 2.483786 23.000000 78.369568
vn -2.262696 3.747708 1.967429
v -20.106020 23.000000 78.924019
vn 1.505021 3.177162 2.757063
v -0.037684 23.000000 79.765518
vn 1.793036 3.327527 2.563117
v -0.463472 23.000000 80.007874
vn 1.593199 2.814468 2.658877
v -0.680352 23.000000 80.191811
vn 1.114457 3.114403 2.936966
v -0.854281 23.000000 80.260529
vn 1.475656 3.432768 2.735749
v -1.638129 23.000000 80.545837
vn -1.989596 3.144135 2.431275
v -17.732321 23.000000 81.223343
vn 1.595650 2.933052 2.686369
v -2.049709 23.000000 80.852440
vn 1.510178 3.283874 2.745742
v -2.417458 23.000000 81.021858
vn 0.083589 3.121468 3.140320
v -9.558836 23.000000 81.101723
vn 0.106730 3.176505 3.139299
v -11.037780 23.000000 81.126122
vn 0.357685 3.267300 3.114920
v -12.492150 23.000000 81.201050
vn 0.803861 3.306540 3.025959
v -13.194410 23.000000 81.326797
vn -0.622967 2.889191 3.053712
v -6.600273 23.000000 81.732841
vn 1.883846 3.171056 2.513676
v -3.040674 23.000000 81.433121
vn 1.482623 2.822601 2.724422
v -3.170779 23.000000 81.533653
vn 0.701439 2.917077 3.041996
v -3.882162 23.000000 81.784401
vn 1.510178 -3.283874 2.745741
v -2.417458 17.000000 81.021858
vn -0.622967 -2.889191 3.053712
v -6.600273 17.000000 81.732841
vn 1.883847 -3.171056 2.513677
v -3.040674 17.000000 81.433121
vn 1.482625 -2.822601 2.724423
v -3.170779 17.000000 81.533653
vn 0.701439 -2.917077 3.041996
v -3.882162 17.000000 81.784401
vn 1.975287 -2.892654 2.411577
v 4.669983 17.000000 76.847191
vn -1.514979 -2.893877 2.724665
v -24.362400 17.000000 76.966171
vn 1.610846 -3.095104 2.696192
v 4.203733 17.000000 77.140671
vn 1.751873 -3.298210 2.596179
v 3.731474 17.000000 77.408127
vn 2.177877 -3.339162 2.242868
v 3.109034 17.000000 77.903198
vn 1.944637 -2.765935 2.396640
v 2.936779 17.000000 78.107162
vn 1.579073 -3.207867 2.713910
v 2.692780 17.000000 78.238510
vn 1.810245 -3.251724 2.561779
v 2.483786 17.000000 78.369568
vn -2.262697 -3.747708 1.967429
v -20.106020 17.000000 78.924019
vn 1.505021 -3.177162 2.757063
v -0.037684 17.000000 79.765518
vn 1.793036 -3.327527 2.563116
v -0.463472 17.000000 80.007874
vn 1.593200 -2.814468 2.658878
v -0.680352 17.000000 80.191811
vn 1.114456 -3.114403 2.936965
v -0.854281 17.000000 80.260529
vn 1.475656 -3.432768 2.735749
v -1.638129 17.000000 80.545837
vn -1.989596 -3.144135 2.431275
v -17.732321 17.000000 81.223343
vn 1.595651 -2.933052 2.686369
v -2.049709 17.000000 80.852440
vn 0.083589 -3.121468 3.140320
v -9.558836 17.000000 81.101723
vn 0.106730 -3.176505 3.139298
v -11.037780 17.000000 81.126122
vn 0.357685 -3.267300 3.114919
v -12.492150 17.000000 81.201050
vn 0.803861 -3.306540 3.025959
v -13.194410 17.000000 81.326797
vn 1.570797 -1.570797 1.570797
v 12.500000 -2.499998 6.000000
vn 1.570796 -1.570796 -1.570796
v 12.500000 -2.499998 0.000000
vn 1.570797 1.570797 -1.570796
v 12.500000 42.500000 0.000000
vn 1.570796 1.570796 1.570796
v 12.500000 42.500000 6.000000
# 176 vertices, 0 vertices normals

f 1//1 2//2 3//3
f 2//2 1//1 4//4
f 5//5 6//6 7//7
f 6//6 5//5 8//8
f 3//3 9//9 10//10
f 9//9 3//3 2//2
f 11//11 12//12 13//13
f 12//12 11//11 14//14
f 15//15 16//16 17//17
f 16//16 15//15 18//18
f 13//13 19//19 20//20
f 19//19 13//13 12//12
f 21//21 22//22 23//23
f 22//22 21//21 24//24
f 25//25 26//26 27//27
f 26//26 25//25 28//28
f 27//27 29//29 30//30
f 29//29 27//27 26//26
f 31//31 32//32 33//33
f 32//32 31//31 34//34
f 35//35 36//36 37//37
f 36//36 35//35 38//38
f 20//20 39//39 40//40
f 39//39 20//20 19//19
f 23//23 41//41 42//42
f 41//41 23//23 22//22
f 43//43 44//44 45//45
f 44//44 43//43 46//46
f 47//47 48//48 49//49
f 48//48 47//47 50//50
f 51//51 52//52 53//53
f 52//52 51//51 54//54
f 55//55 54//54 51//51
f 54//54 55//55 56//56
f 57//57 58//58 59//59
f 58//58 57//57 60//60
f 57//57 61//61 60//60
f 61//61 57//57 62//62
f 62//62 63//63 61//61
f 63//63 62//62 64//64
f 64//64 65//65 63//63
f 65//65 64//64 66//66
f 66//66 67//67 65//65
f 67//67 66//66 68//68
f 68//68 69//69 67//67
f 69//69 68//68 70//70
f 71//71 72//72 73//73
f 72//72 71//71 74//74
f 73//73 75//75 76//76
f 75//75 73//73 72//72
f 75//75 77//77 76//76
f 77//77 75//75 78//78
f 78//78 79//79 77//77
f 79//79 78//78 80//80
f 81//81 82//82 83//83
f 82//82 81//81 84//84
f 84//84 85//85 82//82
f 85//85 84//84 86//86
f 87//87 56//56 55//55
f 56//56 87//87 88//88
f 59//59 88//88 87//87
f 88//88 59//59 58//58
f 80//80 83//83 79//79
f 83//83 80//80 81//81
f 86//86 89//89 85//85
f 89//89 86//86 90//90
f 53//53 89//89 90//90
f 89//89 53//53 52//52
f 70//70 91//91 69//69
f 91//91 70//70 92//92
f 91//91 93//93 94//94
f 93//93 91//91 92//92
f 94//94 95//95 96//96
f 95//95 94//94 93//93
f 96//96 97//97 98//98
f 97//97 96//96 95//95
f 98//98 74//74 71//71
f 74//74 98//98 97//97
f 99//99 47//47 100//100
f 47//47 99//99 101//101
f 47//47 101//101 50//50
f 50//50 101//101 102//102
f 100//100 103//103 104//104
f 103//103 100//100 47//47
f 104//104 103//103 102//102
f 104//104 102//102 101//101
f 105//105 106//106 107//107
f 106//106 105//105 108//108
f 108//108 105//105 109//109
f 109//109 105//105 110//110
f 102//102 111//111 112//112
f 111//111 102//102 103//103
f 100//100 113//113 99//99
f 113//113 100//100 114//114
f 115//115 101//101 116//116
f 101//101 115//115 104//104
f 115//115 112//112 114//114
f 112//112 115//115 116//116
f 112//112 116//116 48//48
f 48//48 116//116 49//49
f 114//114 111//111 113//113
f 111//111 114//114 112//112
f 113//113 111//111 49//49
f 113//113 49//49 116//116
f 101//101 113//113 116//116
f 113//113 101//101 99//99
f 117//117 118//118 119//119
f 118//118 117//117 120//120
f 120//120 117//117 121//121
f 121//121 117//117 122//122
f 122//122 105//105 121//121
f 105//105 122//122 110//110
f 110//110 122//122 75//75
f 75//75 122//122 78//78
f 78//78 122//122 80//80
f 80//80 122//122 117//117
f 110//110 75//75 72//72
f 110//110 72//72 74//74
f 110//110 74//74 97//97
f 80//80 117//117 81//81
f 81//81 117//117 84//84
f 84//84 117//117 86//86
f 86//86 117//117 90//90
f 90//90 117//117 53//53
f 53//53 117//117 51//51
f 51//51 117//117 55//55
f 110//110 68//68 109//109
f 68//68 110//110 70//70
f 70//70 110//110 92//92
f 92//92 110//110 93//93
f 93//93 110//110 95//95
f 95//95 110//110 97//97
f 109//109 68//68 66//66
f 109//109 66//66 64//64
f 109//109 64//64 62//62
f 109//109 62//62 57//57
f 109//109 57//57 59//59
f 109//109 59//59 87//87
f 109//109 87//87 55//55
f 109//109 55//55 117//117
f 109//109 117//117 123//123
f 109//109 123//123 124//124
f 124//124 123//123 125//125
f 125//125 123//123 39//39
f 125//125 39//39 126//126
f 126//126 39//39 19//19
f 126//126 19//19 127//127
f 127//127 19//19 12//12
f 127//127 12//12 128//128
f 128//128 12//12 129//129
f 129//129 12//12 130//130
f 130//130 12//12 28//28
f 28//28 12//12 14//14
f 28//28 14//14 26//26
f 26//26 14//14 131//131
f 26//26 131//131 29//29
f 29//29 131//131 36//36
f 29//29 36//36 132//132
f 132//132 36//36 38//38
f 132//132 38//38 133//133
f 133//133 38//38 134//134
f 134//134 38//38 135//135
f 135//135 38//38 136//136
f 136//136 38//38 137//137
f 136//136 137//137 138//138
f 138//138 137//137 6//6
f 138//138 6//6 139//139
f 6//6 137//137 140//140
f 140//140 137//137 141//141
f 141//141 137//137 142//142
f 142//142 137//137 143//143
f 143//143 137//137 9//9
f 143//143 9//9 24//24
f 24//24 9//9 22//22
f 22//22 9//9 2//2
f 22//22 2//2 41//41
f 41//41 2//2 4//4
f 6//6 18//18 139//139
f 18//18 6//6 8//8
f 18//18 8//8 144//144
f 18//18 144//144 16//16
f 16//16 144//144 145//145
f 145//145 144//144 146//146
f 146//146 144//144 147//147
f 147//147 144//144 44//44
f 147//147 44//44 46//46
f 111//111 47//47 49//49
f 47//47 111//111 103//103
f 102//102 48//48 50//50
f 48//48 102//102 112//112
f 15//15 7//7 148//148
f 7//7 15//15 5//5
f 5//5 15//15 149//149
f 149//149 15//15 17//17
f 149//149 17//17 150//150
f 149//149 150//150 151//151
f 149//149 151//151 152//152
f 149//149 152//152 45//45
f 45//45 152//152 43//43
f 106//106 120//120 107//107
f 120//120 106//106 118//118
f 118//118 106//106 91//91
f 91//91 106//106 69//69
f 69//69 106//106 67//67
f 67//67 106//106 108//108
f 118//118 91//91 94//94
f 118//118 94//94 96//96
f 118//118 96//96 98//98
f 67//67 108//108 65//65
f 65//65 108//108 63//63
f 63//63 108//108 61//61
f 61//61 108//108 60//60
f 60//60 108//108 58//58
f 58//58 108//108 115//115
f 58//58 115//115 88//88
f 88//88 115//115 56//56
f 115//115 108//108 104//104
f 104//104 108//108 153//153
f 104//104 153//153 100//100
f 100//100 153//153 119//119
f 119//119 153//153 154//154
f 154//154 153//153 155//155
f 154//154 155//155 40//40
f 40//40 155//155 156//156
f 40//40 156//156 20//20
f 20//20 156//156 157//157
f 20//20 157//157 13//13
f 13//13 157//157 158//158
f 13//13 158//158 159//159
f 13//13 159//159 160//160
f 13//13 160//160 25//25
f 13//13 25//25 11//11
f 11//11 25//25 27//27
f 11//11 27//27 161//161
f 161//161 27//27 30//30
f 161//161 30//30 37//37
f 37//37 30//30 162//162
f 37//37 162//162 35//35
f 35//35 162//162 163//163
f 35//35 163//163 164//164
f 35//35 164//164 165//165
f 35//35 165//165 166//166
f 35//35 166//166 167//167
f 167//167 166//166 168//168
f 167//167 168//168 7//7
f 7//7 168//168 148//148
f 167//167 7//7 169//169
f 167//167 169//169 170//170
f 167//167 170//170 171//171
f 167//167 171//171 172//172
f 167//167 172//172 10//10
f 10//10 172//172 21//21
f 10//10 21//21 23//23
f 10//10 23//23 3//3
f 3//3 23//23 42//42
f 3//3 42//42 1//1
f 118//118 79//79 119//119
f 79//79 118//118 77//77
f 77//77 118//118 76//76
f 76//76 118//118 73//73
f 73//73 118//118 71//71
f 71//71 118//118 98//98
f 119//119 79//79 83//83
f 119//119 83//83 82//82
f 119//119 82//82 85//85
f 119//119 85//85 89//89
f 119//119 89//89 52//52
f 119//119 52//52 114//114
f 114//114 52//52 54//54
f 114//114 54//54 56//56
f 114//114 56//56 115//115
f 119//119 114//114 100//100
f 171//171 143//143 172//172
f 143//143 171//171 142//142
f 153//153 125//125 155//155
f 125//125 153//153 124//124
f 152//152 46//46 43//43
f 46//46 152//152 147//147
f 173//173 32//32 174//174
f 32//32 173//173 33//33
f 31//31 175//175 34//34
f 175//175 31//31 176//176
f 175//175 173//173 174//174
f 173//173 175//175 176//176
f 33//33 120//120 31//31
f 120//120 33//33 173//173
f 120//120 173//173 107//107
f 107//107 173//173 105//105
f 31//31 121//121 176//176
f 121//121 31//31 120//120
f 176//176 121//121 105//105
f 176//176 105//105 173//173
f 30//30 132//132 162//162
f 132//132 30//30 29//29
f 165//165 136//136 166//166
f 136//136 165//165 135//135
f 42//42 4//4 1//1
f 4//4 42//42 41//41
f 156//156 127//127 157//157
f 127//127 156//156 126//126
f 164//164 135//135 165//165
f 135//135 164//164 134//134
f 175//175 32//32 34//34
f 32//32 175//175 174//174
f 36//36 161//161 37//37
f 161//161 36//36 131//131
f 159//159 130//130 160//160
f 130//130 159//159 129//129
f 45//45 144//144 149//149
f 144//144 45//45 44//44
f 7//7 140//140 169//169
f 140//140 7//7 6//6
f 10//10 137//137 167//167
f 137//137 10//10 9//9
f 170//170 142//142 171//171
f 142//142 170//170 141//141
f 17//17 145//145 150//150
f 145//145 17//17 16//16
f 149//149 8//8 5//5
f 8//8 149//149 144//144
f 167//167 38//38 35//35
f 38//38 167//167 137//137
f 155//155 126//126 156//156
f 126//126 155//155 125//125
f 162//162 133//133 163//163
f 133//133 162//162 132//132
f 160//160 28//28 25//25
f 28//28 160//160 130//130
f 150//150 146//146 151//151
f 146//146 150//150 145//145
f 158//158 129//129 159//159
f 129//129 158//158 128//128
f 127//127 158//158 157//157
f 158//158 127//127 128//128
f 168//168 139//139 148//148
f 139//139 168//168 138//138
f 163//163 134//134 164//164
f 134//134 163//163 133//133
f 148//148 18//18 15//15
f 18//18 148//148 139//139
f 109//109 153//153 108//108
f 153//153 109//109 124//124
f 154//154 117//117 119//119
f 117//117 154//154 123//123
f 161//161 14//14 11//11
f 14//14 161//161 131//131
f 166//166 138//138 168//168
f 138//138 166//166 136//136
f 169//169 141//141 170//170
f 141//141 169//169 140//140
f 40//40 123//123 154//154
f 123//123 40//40 39//39
f 172//172 24//24 21//21
f 24//24 172//172 143//143
f 151//151 147//147 152//152
f 147//147 151//151 146//146
# 356 faces, 0 coords texture

# End of File
